Coordinates
version=1
nRows=4
nColumns=107
inDegrees=yes

Units are S.I. units (second, meters, Newtons, ...)
If the header above contains a line with 'inDegrees', this indicates whether rotational values are in degrees (yes) or radians (no).

endheader
time	sternoclavicular_r2	sternoclavicular_r3	unrotscap_r3	unrotscap_r2	acromioclavicular_r2	acromioclavicular_r3	acromioclavicular_r1	unrothum_r1	unrothum_r3	unrothum_r2	elv_angle	shoulder_elv	shoulder1_r2	shoulder_rot	elbow_flexion	pro_sup	deviation	flexion	proximal_distal_r1	proximal_distal_r3	cmc_flexion	cmc_abduction	mp_flexion	ip_flexion	mcp2_flexion	mcp2_abduction	pm2_flexion	md2_flexion	mcp3_flexion	mcp3_abduction	pm3_flexion	md3_flexion	mcp4_flexion	mcp4_abduction	pm4_flexion	md4_flexion	mcp5_flexion	mcp5_abduction	pm5_flexion	md5_flexion	bicpt_tx	bicpt_ty	bicpt_tz	bicpt2_tx	bicpt2_ty	bicpt2_tz	ptpt_tx	ptpt_ty	ptpt_tz	FCUpt_tx	FCUpt_ty	FCUpt_tz	EDCpt_tx	EDCpt_ty	EDCpt_tz	APLpt_tx	APLpt_ty	APLpt_tz	FPLpt_tx	FPLpt_ty	FPLpt_tz	FPLpt2_tx	FPLpt2_ty	FPLpt2_tz	PEC1pt2_tx	PEC1pt2_ty	PEC1pt2_tz	PEC1pt3_tx	PEC1pt3_ty	PEC1pt3_tz	PEC2pt2_tx	PEC2pt2_ty	PEC2pt2_tz	PEC2pt3_tx	PEC2pt3_ty	PEC2pt3_tz	PEC3pt2_tx	PEC3pt2_ty	PEC3pt2_tz	PEC3pt3_tx	PEC3pt3_ty	PEC3pt3_tz	DELT2pt2a_tx	DELT2pt2a_ty	DELT2pt2a_tz	DELT2pt2_tx	DELT2pt2_ty	DELT2pt2_tz	LAT1pt2_tx	LAT1pt2_ty	LAT1pt2_tz	LAT1pt3_tx	LAT1pt3_ty	LAT1pt3_tz	LAT2pt2_tx	LAT2pt2_ty	LAT2pt2_tz	LAT2pt3_tx	LAT2pt3_ty	LAT2pt3_tz	LAT3pt2_tx	LAT3pt2_ty	LAT3pt2_tz	LAT3pt3_tx	LAT3pt3_ty	LAT3pt3_tz
      1.06666667	     -0.32402794	      0.13724294	     -0.13724294	      0.32402794	     -0.06560907	      0.53022940	      0.23833447	     -0.23833447	     -0.53022940	      0.06560907	     98.86782607	     76.71649557	     -1.72556909	    -21.46274005	     28.06376093	     29.29115238	      0.12328967	     -1.06840337	      0.15487985	     -0.53420168	     -3.67785053	     -0.59908555	    -34.20004465	    -47.71141874	     77.76891560	     12.16485902	     86.36845485	     82.64513583	     82.47675054	      3.69178249	     85.27193049	     52.08115720	     77.03019178	     -9.62126823	     97.55982403	     34.89656348	     73.57124909	    -12.89706614	     88.92285738	      5.66319644	      0.00082826	     -0.03081654	     -0.00481810	      0.01642322	     -0.01782366	     -0.00853282	      0.00538571	     -0.06629946	     -0.00240956	      0.00671978	     -0.18370155	     -0.00026722	     -0.00351493	      0.00096232	      0.00019222	      0.00013719	      0.00005488	      0.00027438	      0.00017560	      0.00052681	      0.00029633	     -0.00021925	      0.00009946	      0.00011935	      0.00251460	      0.00882240	      0.00613732	     -0.00822572	      0.01986107	     -0.01883818	      0.00251460	      0.00882240	      0.00613732	      0.00055406	      0.01841197	     -0.00967481	      0.00396869	      0.00490603	      0.01601814	      0.00000000	      0.00787175	      0.00000000	     -0.00720283	     -0.03328646	     -0.00649113	      0.01460602	     -0.00047728	     -0.00382267	     -0.00089503	      0.01500235	     -0.00613732	      0.00247198	      0.02165112	     -0.01790053	     -0.00600946	      0.01299919	     -0.00549802	     -0.01253037	      0.02744748	     -0.03072924	     -0.02352641	      0.01453353	     -0.00737331	     -0.01559903	      0.03170951	     -0.03840090
      1.10000000	     -0.32301721	      0.13681485	     -0.13681485	      0.32301721	     -0.06540442	      0.52857548	      0.23759104	     -0.23759104	     -0.52857548	      0.06540442	     99.03998608	     76.47719652	     -1.72857385	    -22.66424196	     28.23830203	     30.66134968	      0.11806435	     -1.07350227	      0.14882087	     -0.53675114	     -3.15439915	      0.05566969	    -33.09842009	    -44.43434024	     76.05757342	     12.20766653	     86.05027120	     81.22787929	     81.71138183	      3.55670482	     85.23602149	     54.35294369	     76.24110709	     -9.47271216	     96.74624643	     37.01657600	     72.15962333	    -12.78498593	     88.44428512	      5.68394111	      0.00083404	     -0.03083654	     -0.00482132	      0.01645720	     -0.01787107	     -0.00840581	      0.00528447	     -0.06636493	     -0.00251994	      0.00685349	     -0.18367695	     -0.00028729	     -0.00367935	      0.00101382	      0.00018983	      0.00013326	      0.00005331	      0.00026653	      0.00017058	      0.00051173	      0.00028785	     -0.00017280	      0.00008439	      0.00010127	      0.00250675	      0.00879489	      0.00611818	     -0.00820006	      0.01979911	     -0.01877942	      0.00250675	      0.00879489	      0.00611818	      0.00055234	      0.01835454	     -0.00964463	      0.00395967	      0.00489072	      0.01599624	      0.00000000	      0.00782237	      0.00000000	     -0.00718037	     -0.03318263	     -0.00645014	      0.01526619	     -0.00051514	     -0.00427797	     -0.00089223	      0.01495555	     -0.00611818	      0.00246427	      0.02158358	     -0.01784469	     -0.00599072	      0.01295865	     -0.00548087	     -0.01249129	      0.02736186	     -0.03063339	     -0.02345303	      0.01448819	     -0.00735031	     -0.01555038	      0.03161060	     -0.03828112
      1.13333333	     -0.32294164	      0.13678284	     -0.13678284	      0.32294164	     -0.06538911	      0.52845182	      0.23753545	     -0.23753545	     -0.52845182	      0.06538911	     99.00621074	     76.45930492	     -1.72798436	    -22.69095823	     28.37082570	     31.13037250	      0.12098810	     -1.07074404	      0.15221651	     -0.53537202	     -2.18772701	      0.48876157	    -31.49949972	    -40.34969205	     72.94863260	     12.26405856	     85.55930473	     78.42434567	     79.50944760	      3.63486516	     84.86734620	     52.49203079	     74.34176293	     -9.23457016	     94.99844511	     37.57776590	     69.89022568	    -12.69071281	     87.39338334	      5.67012747	      0.00083842	     -0.03085173	     -0.00482377	      0.01646785	     -0.01790707	     -0.00836172	      0.00524982	     -0.06638734	     -0.00255772	      0.00689939	     -0.18366840	     -0.00029383	     -0.00373564	      0.00103158	      0.00018878	      0.00013539	      0.00005416	      0.00027078	      0.00017330	      0.00051989	      0.00029244	     -0.00010149	      0.00005735	      0.00006882	      0.00250617	      0.00879283	      0.00611675	     -0.00819814	      0.01979448	     -0.01877502	      0.00250617	      0.00879283	      0.00611675	      0.00055221	      0.01835025	     -0.00964238	      0.00395899	      0.00488958	      0.01599459	      0.00000000	      0.00781868	      0.00000000	     -0.00717869	     -0.03317487	     -0.00644708	      0.01528065	     -0.00051599	     -0.00428834	     -0.00089203	      0.01495205	     -0.00611675	      0.00246369	      0.02157853	     -0.01784052	     -0.00598932	      0.01295562	     -0.00547959	     -0.01248836	      0.02735546	     -0.03062623	     -0.02344754	      0.01448480	     -0.00734859	     -0.01554674	      0.03160321	     -0.03827216
      1.16666667	     -0.32421756	      0.13732326	     -0.13732326	      0.32421756	     -0.06564746	      0.53053969	      0.23847394	     -0.23847394	     -0.53053969	      0.06564746	     98.71146411	     76.76139001	     -1.72284006	    -21.10986688	     28.36054237	     30.33980869	      0.13423828	     -1.05954243	      0.16743081	     -0.52977121	     -0.59790609	      0.66956942	    -29.27903714	    -36.03200851	     68.60491953	     12.34572826	     84.61386429	     75.14943395	     75.79722841	      3.86582921	     84.12010493	     49.70651112	     71.26823857	     -8.95251775	     92.75122600	     36.82780030	     66.72498755	    -12.64375588	     85.62071107	      5.64989433	      0.00083808	     -0.03085055	     -0.00482358	      0.01644961	     -0.01790428	     -0.00843585	      0.00530823	     -0.06634957	     -0.00249403	      0.00682206	     -0.18368277	     -0.00028270	     -0.00364077	      0.00100168	      0.00019048	      0.00014391	      0.00005756	      0.00028782	      0.00018421	      0.00055262	      0.00031085	     -0.00002038	      0.00001515	      0.00001818	      0.00251607	      0.00882757	      0.00614092	     -0.00823053	      0.01987269	     -0.01884920	      0.00251607	      0.00882757	      0.00614092	      0.00055439	      0.01842275	     -0.00968047	      0.00397038	      0.00490890	      0.01602223	      0.00000000	      0.00788103	      0.00000000	     -0.00720705	     -0.03330594	     -0.00649883	      0.01440847	     -0.00046627	     -0.00369311	     -0.00089555	      0.01501113	     -0.00614092	      0.00247342	      0.02166379	     -0.01791101	     -0.00601298	      0.01300680	     -0.00550124	     -0.01253770	      0.02746354	     -0.03074723	     -0.02354018	      0.01454203	     -0.00737763	     -0.01560816	      0.03172807	     -0.03842337
